<?xml version="1.0" encoding="UTF-8" standalone="no"?><!DOCTYPE svg PUBLIC "-//W3C//DTD SVG 1.1//EN" "http://www.w3.org/Graphics/SVG/1.1/DTD/svg11.dtd"><svg width="100%" height="100%" viewBox="0 0 37 69" version="1.1" xmlns="http://www.w3.org/2000/svg" xmlns:xlink="http://www.w3.org/1999/xlink" xml:space="preserve" xmlns:serif="http://www.serif.com/" style="fill-rule:evenodd;clip-rule:evenodd;stroke-linecap:round;stroke-linejoin:round;stroke-miterlimit:1.5;"><path d="M3.559,20.322l29.578,0" style="fill:none;stroke:#f5f4f4;stroke-opacity:0.278431;stroke-width:1.17px;"/><path d="M1.711,22.921l32.478,0" style="fill:none;stroke:#f5f4f4;stroke-opacity:0.278431;stroke-width:1.17px;"/><path d="M1.1,25.519l34.066,0" style="fill:none;stroke:#f5f4f4;stroke-opacity:0.278431;stroke-width:1.17px;"/><path d="M1.1,28.118l34.818,0" style="fill:none;stroke:#f5f4f4;stroke-opacity:0.278431;stroke-width:1.17px;"/><path d="M0.652,30.717l34.965,0" style="fill:none;stroke:#f5f4f4;stroke-opacity:0.278431;stroke-width:1.17px;"/><rect x="12.328" y="0.324" width="11.93" height="2.15" style="fill:none;stroke:#f5f4f4;stroke-width:0.65px;"/><path d="M12.328,1.493l-3.541,0l-0.677,16.566" style="fill:none;stroke:#f5f4f4;stroke-width:0.65px;"/><path d="M24.257,1.493l3.541,0l0.677,16.566" style="fill:none;stroke:#f5f4f4;stroke-width:0.65px;"/><path d="M25.078,18.059c0,-2.755 -3.04,-4.992 -6.785,-4.992c-3.746,0 -6.786,2.237 -6.786,4.992l13.571,0Z" style="fill:none;stroke:#f5f4f4;stroke-width:0.98px;"/><path d="M14.021,65.259c0,1.667 -1.127,3.02 -2.514,3.02c-1.388,0 -2.515,-1.353 -2.515,-3.02l5.029,0Z" style="fill:none;stroke:#f5f4f4;stroke-width:0.98px;"/><path d="M27.593,65.259c0,1.667 -1.127,3.02 -2.515,3.02c-1.387,0 -2.514,-1.353 -2.514,-3.02l5.029,0Z" style="fill:none;stroke:#f5f4f4;stroke-width:0.98px;"/><path d="M35.917,26.893c0,-4.876 -3.958,-8.834 -8.833,-8.834l-17.667,0c-4.875,0 -8.833,3.958 -8.833,8.834l0,29.533c0,4.875 3.958,8.833 8.833,8.833l17.667,0c4.875,0 8.833,-3.958 8.833,-8.833l0,-29.533Z" style="fill:none;stroke:#f5f4f4;stroke-width:1.17px;"/><path d="M0.584,32.971l35.333,0l-10.839,0l0,32.288" style="fill:none;stroke:#f5f4f4;stroke-width:1.17px;"/><path d="M11.507,32.971l0,32.288" style="fill:none;stroke:#f5f4f4;stroke-width:1.17px;"/></svg>