<?xml version="1.0" encoding="UTF-8" standalone="no"?><!DOCTYPE svg PUBLIC "-//W3C//DTD SVG 1.1//EN" "http://www.w3.org/Graphics/SVG/1.1/DTD/svg11.dtd"><svg width="100%" height="100%" viewBox="0 0 16 16" version="1.1" xmlns="http://www.w3.org/2000/svg" xmlns:xlink="http://www.w3.org/1999/xlink" xml:space="preserve" xmlns:serif="http://www.serif.com/" style="fill-rule:evenodd;clip-rule:evenodd;stroke-linejoin:round;stroke-miterlimit:1.41421;"><path d="M16,1.28c0,-0.706 -0.574,-1.28 -1.28,-1.28l-13.44,0c-0.706,0 -1.28,0.574 -1.28,1.28l0,13.44c0,0.706 0.574,1.28 1.28,1.28l13.44,0c0.706,0 1.28,-0.574 1.28,-1.28l0,-13.44Z" style="fill:#fff;"/><path d="M12.905,14.157l-9.87,0c-0.058,0 -0.117,-0.002 -0.174,-0.006l0,-10.957c0.057,-0.004 0.116,-0.006 0.174,-0.006l0.896,0c0,-1.311 1.823,-2.376 4.069,-2.376c2.246,0 4.069,1.065 4.069,2.376l0.836,0l0,10.969Zm0.869,-10.83c1.021,0.363 1.759,1.392 1.759,2.603l0,5.485c0,1.211 -0.738,2.24 -1.759,2.603l0,-10.691Zm-11.782,0.098l0,10.496c-0.898,-0.428 -1.525,-1.389 -1.525,-2.506l0,-5.485c0,-1.116 0.627,-2.078 1.525,-2.505Zm6.008,3.573c0.304,-0.74 0.912,-0.74 1.217,-0.404c0.304,0.337 0.304,1.01 0,1.682c-0.213,0.505 -0.761,1.01 -1.217,1.346c-0.456,-0.336 -1.004,-0.841 -1.217,-1.346c-0.304,-0.672 -0.304,-1.345 0,-1.682c0.305,-0.336 0.913,-0.336 1.217,0.404Zm-3.465,-3.81l6.93,0c-0.291,-0.963 -1.733,-1.695 -3.465,-1.695c-1.732,0 -3.173,0.732 -3.465,1.695Z" style="fill:#1b344b;"/></svg>